<?xml version="1.0" standalone="no"?>
<!DOCTYPE svg PUBLIC "-//W3C//DTD SVG 20010904//EN"
 "http://www.w3.org/TR/2001/REC-SVG-20010904/DTD/svg10.dtd">
<svg version="1.0" xmlns="http://www.w3.org/2000/svg"
 width="200.000000pt" height="253.000000pt" viewBox="0 0 200.000000 253.000000"
 preserveAspectRatio="xMidYMid meet">

<g transform="translate(0.000000,253.000000) scale(0.100000,-0.100000)"
fill="#000000" stroke="none">
<path d="M941 2353 c-1 -7 -12 -15 -26 -19 -27 -7 -34 -24 -11 -24 8 0 17 -4
20 -9 4 -5 -3 -7 -14 -4 -15 4 -20 0 -20 -13 0 -15 -2 -16 -9 -5 -5 7 -22 14
-38 15 -16 2 -35 6 -41 10 -15 9 -16 -6 -1 -21 12 -12 -41 -73 -65 -73 -9 0
-12 -7 -9 -19 6 -23 -14 -38 -30 -22 -15 15 -27 14 -21 -3 6 -15 -34 -48 -48
-40 -4 3 -11 -10 -15 -28 l-7 -33 -6 30 c-3 17 -12 29 -19 27 -7 -1 -10 2 -6
8 3 5 1 11 -4 11 -6 1 -15 2 -21 3 -5 0 -15 7 -22 14 -18 18 -35 15 -41 -8 -4
-15 1 -22 19 -26 29 -7 32 -24 4 -24 -11 0 -20 -5 -20 -11 0 -7 9 -9 21 -6 28
7 19 -14 -12 -30 -20 -11 -26 -10 -36 3 -8 11 -18 14 -35 8 -13 -4 -27 -7 -31
-6 -4 1 -10 -5 -13 -13 -4 -8 -13 -15 -20 -15 -8 0 -17 -7 -20 -15 -6 -14 -8
-13 -20 2 -8 11 -13 13 -14 6 0 -7 -5 -13 -11 -13 -6 0 -8 9 -4 20 4 11 2 20
-4 20 -6 0 -11 -9 -11 -19 0 -11 -18 -33 -42 -50 -45 -33 -69 -41 -48 -16 7 8
18 15 25 15 9 0 35 47 35 64 0 1 -12 2 -26 3 -15 0 -30 7 -34 13 -4 7 -13 9
-20 5 -10 -6 -12 -1 -8 19 3 14 1 26 -3 26 -5 0 -9 -5 -9 -11 0 -5 -4 -7 -10
-4 -13 8 -13 3 2 -32 6 -15 11 -31 10 -35 -1 -5 3 -8 9 -8 5 0 8 -4 5 -9 -4
-5 0 -12 6 -14 9 -4 8 -6 -3 -6 -8 -1 -20 4 -27 11 -9 9 -12 7 -12 -11 0 -12
-4 -19 -10 -16 -13 8 0 -26 39 -102 41 -80 66 -115 76 -106 4 5 5 2 1 -5 -9
-14 55 -81 108 -113 35 -21 144 -24 396 -9 l135 7 24 -25 c27 -29 15 -29 279
-10 89 6 162 14 162 17 1 3 9 16 20 29 17 21 38 25 236 47 119 14 223 25 230
25 9 0 14 13 14 38 -1 38 -19 72 -39 72 -6 0 -11 9 -11 20 0 24 -9 25 -52 3
-18 -9 -40 -20 -48 -23 -9 -5 -23 2 -38 17 -20 22 -21 25 -6 41 18 18 33 21
117 26 32 2 61 6 63 9 8 8 -18 86 -33 98 -9 9 -17 8 -28 -1 -12 -10 -14 -8
-10 9 2 12 0 21 -6 21 -5 0 -9 -3 -9 -7 0 -5 -3 -18 -6 -30 -5 -17 -2 -23 10
-23 9 0 16 -5 16 -11 0 -8 5 -8 15 1 10 9 15 9 15 1 0 -10 -13 -15 -32 -12 -5
0 -8 -5 -8 -12 0 -11 -51 -37 -73 -37 -11 0 -8 38 3 45 17 10 11 41 -13 68
-25 30 -49 34 -67 12 -10 -12 -10 -15 3 -15 20 0 29 -14 21 -33 -6 -16 -82
-49 -95 -41 -5 3 -2 16 6 28 15 23 14 24 -12 31 -17 4 -29 2 -31 -4 -2 -6 -10
-11 -18 -11 -9 0 -12 -4 -9 -10 3 -5 2 -10 -3 -10 -6 0 -13 7 -16 16 -7 17 22
46 36 38 5 -3 8 2 8 10 0 9 -3 15 -7 15 -22 -4 -32 3 -27 16 7 18 -7 20 -24 3
-10 -10 -17 -10 -32 0 -29 18 -50 15 -50 -7 0 -12 8 -21 22 -23 28 -4 36 -28
9 -28 -14 0 -19 -5 -15 -14 7 -19 -31 -10 -48 12 -10 12 -10 14 0 8 6 -4 12
-3 12 1 0 5 -6 15 -12 22 -11 10 -8 16 10 31 19 16 21 23 13 39 -6 11 -8 26
-5 34 3 8 1 18 -5 22 -7 4 -8 0 -4 -11 5 -13 2 -15 -14 -10 -30 10 -56 -3 -42
-20 18 -21 1 -54 -28 -54 l-25 0 28 -32 c15 -18 30 -33 33 -34 24 -3 61 -26
56 -34 -4 -6 -11 -7 -17 -4 -6 4 -21 -6 -33 -22 l-23 -29 5 25 c4 22 -1 27
-29 38 -42 15 -58 15 -58 2 0 -6 3 -9 8 -9 20 3 33 -2 30 -13 -8 -24 -46 -16
-59 11 -7 14 -15 28 -16 30 -1 2 -10 -2 -19 -10 -15 -13 -17 -11 -12 19 4 26
1 32 -14 32 -23 0 -23 26 -1 48 21 21 50 24 57 5 5 -11 9 -11 27 -1 16 10 23
10 26 2 5 -15 45 -5 40 10 -2 6 -13 11 -24 11 -36 0 -38 15 -2 16 l34 1 -32 8
c-18 4 -39 13 -48 20 -8 6 -20 8 -27 4 -27 -17 -33 -11 -31 30 2 39 2 40 -9
14 -6 -14 -19 -29 -28 -31 -26 -7 -32 -55 -8 -68 11 -6 17 -13 14 -16 -3 -3
-12 0 -21 7 -15 12 -21 4 -16 -23 3 -14 -43 -46 -66 -47 -13 0 -23 4 -23 9 0
11 22 29 35 29 5 0 11 5 13 11 3 10 -4 13 -24 10 -4 0 -11 5 -15 13 -7 10 -9
10 -9 1 0 -7 -7 -13 -15 -13 -8 0 -15 5 -15 10 0 6 5 10 10 10 6 0 3 11 -5 24
-15 23 -14 25 24 56 23 17 44 29 48 27 9 -5 27 13 30 29 1 6 -16 18 -37 28
-24 11 -42 27 -49 44 -5 15 -10 21 -10 15z m-235 -235 c-6 -45 -7 -46 -15 -18
-4 14 -2 30 4 37 15 18 17 16 11 -19z m604 18 c0 -23 -16 -27 -17 -5 -1 10 2
19 8 19 5 0 9 -6 9 -14z m-650 -25 c0 -5 -7 -14 -15 -21 -16 -14 -18 -10 -9
14 6 17 24 22 24 7z m-130 -71 c0 -5 -4 -10 -10 -10 -5 0 -10 5 -10 10 0 6 5
10 10 10 6 0 10 -4 10 -10z m560 -20 c0 -16 -2 -30 -4 -30 -2 0 -6 14 -8 30
-3 17 -1 30 4 30 4 0 8 -13 8 -30z m-130 12 c0 -4 12 -20 26 -35 25 -27 27
-54 2 -29 -17 17 -28 15 -22 -3 4 -8 15 -15 26 -15 11 0 26 -7 34 -15 14 -13
13 -15 -5 -15 -12 0 -21 3 -21 8 0 4 -10 12 -22 17 -28 13 -48 46 -30 52 23 9
12 25 -13 19 -24 -6 -33 3 -18 17 9 9 43 9 43 -1z m-370 -21 c0 -5 -7 -12 -16
-15 -24 -9 -28 -7 -14 9 14 17 30 20 30 6z m930 -1 c0 -5 -5 -10 -11 -10 -5 0
-7 5 -4 10 3 6 8 10 11 10 2 0 4 -4 4 -10z m-818 -17 c-38 -7 -19 -28 23 -25
30 2 36 -1 31 -13 -17 -43 -18 -49 -2 -27 10 12 26 22 38 22 14 0 18 5 14 15
-7 18 10 20 21 3 9 -15 11 -88 3 -83 -4 2 -13 -5 -20 -16 -8 -10 -21 -19 -28
-19 -11 0 -12 -3 -3 -14 9 -10 8 -15 -2 -19 -19 -7 -15 -37 11 -79 12 -19 22
-40 22 -47 0 -20 -38 -12 -54 11 -9 12 -16 18 -16 13 0 -5 -7 1 -16 13 -8 12
-33 31 -55 43 -22 11 -43 27 -46 36 -5 14 -8 14 -21 -3 -9 -13 -16 -15 -19 -7
-2 7 -10 10 -16 7 -8 -3 -13 9 -14 31 -2 21 2 35 9 35 6 0 8 3 5 6 -4 4 -13 1
-21 -5 -11 -10 -14 -9 -12 2 1 8 16 27 34 42 18 15 32 32 32 39 0 20 58 44
105 43 16 0 15 -1 -3 -4z m441 -28 c-3 -9 -8 -14 -10 -11 -3 3 -2 9 2 15 9 16
15 13 8 -4z m647 -9 c0 -2 -7 -9 -15 -16 -13 -11 -14 -10 -9 4 5 14 24 23 24
12z m-590 -16 c0 -5 -5 -10 -11 -10 -5 0 -7 5 -4 10 3 6 8 10 11 10 2 0 4 -4
4 -10z m240 -6 c0 -9 -5 -14 -12 -12 -18 6 -21 28 -4 28 9 0 16 -7 16 -16z
m-183 -18 c0 -8 -9 -17 -19 -19 -20 -6 -20 -5 -12 17 8 20 31 21 31 2z m73 4
c0 -5 -5 -10 -11 -10 -5 0 -7 5 -4 10 3 6 8 10 11 10 2 0 4 -4 4 -10z m-330
-14 c0 -11 -19 -15 -25 -6 -3 5 1 10 9 10 9 0 16 -2 16 -4z m362 -20 c7 4 8 2
4 -4 -11 -18 -26 -14 -25 6 0 10 3 12 6 4 2 -6 10 -9 15 -6z m-915 -62 c18
-17 16 -27 -2 -20 -8 3 -15 1 -15 -4 0 -14 31 -12 44 3 6 7 10 10 9 8 -2 -2 7
-9 20 -16 24 -12 24 -32 3 -75 -7 -14 -18 -24 -25 -22 -8 2 -10 -4 -6 -17 5
-16 0 -19 -40 -23 -25 -2 -45 1 -45 5 0 5 -4 5 -10 2 -10 -6 -70 21 -70 31 0
4 9 4 19 1 13 -3 22 3 30 19 6 15 7 24 1 24 -6 0 -10 7 -10 15 0 11 -9 14 -37
10 -32 -5 -36 -3 -23 7 8 8 20 22 26 33 23 42 98 53 131 19z m853 2 c0 -35
-25 -40 -26 -5 -1 18 4 29 12 29 8 0 14 -10 14 -24z m365 -5 c16 -7 11 -9 -22
-12 -41 -4 -57 4 -30 14 17 7 29 7 52 -2z m-985 -82 c0 -11 -4 -17 -10 -14 -5
3 -10 13 -10 21 0 8 5 14 10 14 6 0 10 -9 10 -21z"/>
<path d="M629 1932 c-14 -6 -15 -9 -3 -20 11 -10 15 -8 24 8 11 21 6 23 -21
12z"/>
<path d="M656 1806 c3 -9 11 -16 16 -16 13 0 5 23 -10 28 -7 2 -10 -2 -6 -12z"/>
<path d="M776 1721 c-4 -7 -5 -15 -2 -18 9 -9 19 4 14 18 -4 11 -6 11 -12 0z"/>
<path d="M475 1779 c-4 -6 -5 -12 -2 -15 2 -3 7 2 10 11 7 17 1 20 -8 4z"/>
<path d="M370 1709 c0 -5 9 -9 20 -9 11 0 20 4 20 8 0 4 -9 8 -20 9 -11 1 -20
-2 -20 -8z"/>
<path d="M800 2339 c0 -5 -4 -7 -10 -4 -5 3 -10 2 -10 -3 0 -8 22 -22 36 -22
2 0 4 9 4 20 0 11 -4 20 -10 20 -5 0 -10 -5 -10 -11z"/>
<path d="M990 2340 c0 -5 5 -10 11 -10 5 0 7 5 4 10 -3 6 -8 10 -11 10 -2 0
-4 -4 -4 -10z"/>
<path d="M666 2258 c-10 -38 -7 -41 18 -17 25 24 25 39 2 39 -8 0 -16 -10 -20
-22z"/>
<path d="M1300 2240 c0 -15 18 -21 45 -14 36 9 31 22 -10 22 -19 0 -35 -4 -35
-8z"/>
<path d="M497 2223 c-10 -9 -9 -23 1 -23 5 0 9 7 9 15 0 17 -1 18 -10 8z"/>
<path d="M525 2220 c-3 -5 -1 -10 4 -10 6 0 11 5 11 10 0 6 -2 10 -4 10 -3 0
-8 -4 -11 -10z"/>
<path d="M1167 2219 c7 -7 15 -10 18 -7 3 3 -2 9 -12 12 -14 6 -15 5 -6 -5z"/>
<path d="M1000 2186 c0 -9 5 -16 10 -16 6 0 10 4 10 9 0 6 -4 13 -10 16 -5 3
-10 -1 -10 -9z"/>
<path d="M1577 2188 c-15 -12 -15 -14 6 -24 21 -10 23 -8 19 13 -5 27 -4 26
-25 11z"/>
<path d="M623 2160 c-29 -36 -29 -41 2 -27 16 8 25 20 25 35 0 27 0 27 -27 -8z"/>
<path d="M1368 2123 c7 -3 16 -2 19 1 4 3 -2 6 -13 5 -11 0 -14 -3 -6 -6z"/>
<path d="M1114 2096 c-8 -22 3 -33 18 -18 9 9 9 15 0 24 -9 9 -13 7 -18 -6z"/>
<path d="M1826 1881 c-9 -15 4 -59 19 -65 10 -4 11 3 3 32 -12 44 -14 47 -22
33z"/>
<path d="M1180 1441 c-23 -6 -25 -12 -25 -58 1 -29 -3 -49 -8 -46 -4 2 -14 -1
-22 -7 -21 -17 -34 -4 -41 41 -4 25 -10 37 -16 31 -11 -11 7 -88 22 -97 5 -3
25 1 45 9 20 9 59 18 86 22 41 6 52 11 60 31 15 39 11 83 -6 83 -11 0 -15 -9
-14 -32 3 -48 0 -60 -11 -53 -5 3 -10 2 -10 -2 0 -12 -57 -15 -65 -3 -3 5 3
15 15 22 26 16 26 31 0 23 -12 -4 -20 -2 -20 5 0 7 9 14 20 17 11 3 20 9 20
14 0 5 -1 9 -2 8 -2 -1 -14 -4 -28 -8z"/>
<path d="M1337 1429 c-16 -9 -47 -65 -47 -84 0 -15 28 -2 33 15 5 21 31 27 42
10 4 -6 1 -18 -7 -27 -11 -14 -10 -16 9 -11 15 4 23 0 26 -13 6 -24 49 -26 68
-3 10 12 10 20 1 35 -7 10 -12 23 -12 29 0 14 27 12 33 -2 2 -7 8 -10 12 -6
13 12 -17 39 -39 36 -24 -3 -35 -43 -17 -61 17 -17 13 -27 -9 -27 -18 0 -25
11 -21 33 1 5 -4 5 -10 1 -9 -5 -10 2 -6 24 11 56 -12 77 -56 51z m37 -31 c-6
-9 -44 -11 -44 -2 0 4 8 13 17 20 18 13 38 0 27 -18z"/>
<path d="M977 1364 c-7 -7 17 -70 34 -91 9 -10 16 -10 40 4 15 9 26 21 23 25
-3 5 -12 4 -20 -3 -22 -18 -42 -3 -50 35 -6 35 -14 43 -27 30z"/>
<path d="M896 1314 c-19 -19 -19 -17 -2 -59 18 -41 54 -47 86 -15 25 25 14 52
-30 75 -36 18 -35 18 -54 -1z m59 -24 c15 -16 15 -22 5 -35 -18 -22 -35 -18
-49 11 -20 44 10 61 44 24z"/>
<path d="M1243 1310 c-54 -11 -173 -68 -173 -82 0 -7 5 -6 15 2 8 7 15 9 15 5
0 -4 7 -2 15 5 18 15 45 6 45 -13 0 -8 -7 -20 -15 -27 -19 -16 -19 -25 1 -44
12 -12 12 -16 2 -17 -7 0 -3 -4 10 -9 16 -7 22 -18 22 -41 0 -28 3 -31 23 -25
12 3 35 6 51 6 24 0 27 2 16 15 -10 12 -9 15 4 15 17 0 46 -22 46 -34 0 -3 -5
-6 -11 -6 -6 0 -33 -10 -59 -22 -46 -21 -47 -23 -43 -57 3 -26 -2 -45 -19 -70
-13 -19 -29 -44 -35 -55 -7 -12 -13 -16 -13 -9 0 6 -10 13 -22 15 -13 2 -22 9
-20 16 1 8 -2 11 -8 7 -5 -3 -10 -1 -10 4 0 6 -6 10 -12 9 -7 -2 -12 5 -12 14
1 10 -2 15 -7 12 -5 -3 -9 2 -9 11 0 8 7 18 15 21 22 9 18 39 -6 55 -24 17
-44 92 -30 117 9 15 10 15 16 -3 20 -59 29 -75 42 -75 11 0 13 3 5 13 -6 6
-12 28 -14 47 -2 26 -8 36 -23 38 -11 2 -26 11 -33 20 -11 14 -16 12 -45 -22
-95 -113 -131 -197 -131 -306 -1 -58 4 -83 19 -107 l19 -33 21 25 c20 24 20
24 75 9 99 -28 186 -13 292 48 124 73 229 292 197 410 -14 53 -29 75 -68 99
-39 23 -93 30 -148 19z m125 -212 c18 -18 14 -28 -10 -28 -19 0 -20 2 -8 10
13 8 12 10 -2 10 -10 0 -18 5 -18 10 0 14 23 13 38 -2z m46 -19 c-8 -14 -24
-10 -24 6 0 9 6 12 15 9 8 -4 12 -10 9 -15z m-339 -249 c3 -5 1 -10 -4 -10 -6
0 -11 5 -11 10 0 6 2 10 4 10 3 0 8 -4 11 -10z"/>
<path d="M824 1269 c-5 -8 -7 -22 -6 -31 3 -15 -2 -17 -27 -12 -23 5 -31 3
-31 -8 0 -16 55 -78 69 -78 19 0 12 17 -14 34 -35 23 -31 40 4 21 27 -14 55
-5 31 10 -5 3 -10 14 -10 23 1 12 9 8 29 -16 20 -23 31 -30 36 -22 5 7 -8 28
-32 52 -31 31 -42 37 -49 27z"/>
<path d="M1030 1210 c-9 -6 -10 -10 -3 -10 6 0 15 5 18 10 8 12 4 12 -15 0z"/>
<path d="M1117 1123 c-14 -29 23 -67 44 -46 6 6 8 17 4 23 -6 9 -10 9 -16 -1
-8 -12 -11 -12 -18 1 -5 8 -7 18 -5 22 3 4 3 8 0 8 -3 0 -7 -3 -9 -7z"/>
<path d="M1150 1051 c-8 -6 -18 -7 -22 -5 -4 3 -8 -1 -8 -9 0 -10 8 -13 25 -9
14 2 25 11 25 18 0 16 -1 17 -20 5z"/>
<path d="M1340 809 c0 -55 49 -78 84 -40 17 18 17 20 -3 40 -29 29 -81 29 -81
0z m56 -3 c15 -11 16 -17 7 -27 -16 -16 -43 -4 -43 21 0 24 9 25 36 6z"/>
<path d="M1659 813 c-9 -10 -31 -26 -48 -36 -18 -9 -35 -26 -38 -37 -3 -11 -8
-20 -12 -20 -4 0 -13 -17 -21 -37 -7 -21 -15 -32 -18 -25 -2 7 2 20 9 29 12
14 11 15 -11 8 -14 -4 -28 -12 -32 -18 -4 -7 -12 -6 -22 2 -14 12 -16 10 -16
-9 0 -14 5 -20 13 -17 8 3 20 1 28 -4 11 -7 11 -9 -3 -9 -9 0 -30 -21 -47 -47
-17 -25 -31 -39 -31 -30 0 9 5 19 10 22 17 11 11 25 -11 25 -19 0 -21 -4 -15
-38 3 -22 3 -41 0 -44 -11 -12 -44 5 -44 22 0 10 -10 25 -22 34 -23 16 -23 16
10 10 20 -3 32 -2 32 5 0 6 -3 10 -7 10 -20 -3 -23 2 -9 16 8 8 23 15 33 15
15 0 16 -2 3 -10 -8 -5 -10 -10 -4 -10 6 0 19 9 29 20 17 19 17 20 -10 30 -14
5 -30 8 -35 5 -5 -3 -11 1 -14 7 -4 7 -4 3 -2 -9 3 -18 -1 -23 -16 -23 -17 0
-18 3 -9 14 8 10 0 8 -26 -5 -47 -24 -59 -44 -36 -58 10 -6 14 -11 8 -11 -5 0
-5 -4 2 -8 7 -5 -5 -12 -33 -18 -25 -6 -47 -7 -50 -2 -3 4 4 8 16 8 13 0 19 4
14 11 -4 7 0 9 14 5 19 -6 20 -5 9 17 -6 14 -17 22 -24 20 -7 -3 -10 -10 -6
-17 4 -6 -1 -5 -10 3 -14 11 -20 11 -34 0 -15 -13 -13 -15 13 -20 l29 -7 -31
-1 c-16 0 -35 4 -42 11 -9 9 -12 8 -12 -5 0 -23 -24 -32 -47 -18 -10 6 -13 11
-7 11 7 0 15 7 18 16 5 13 3 14 -6 6 -7 -6 -27 -12 -43 -15 -48 -8 -75 -19
-75 -31 0 -8 -2 -8 -8 0 -4 7 -16 14 -27 17 -11 2 0 5 24 6 24 0 41 4 38 7
-11 12 -86 14 -92 4 -4 -6 -15 -8 -26 -5 -15 5 -19 1 -19 -17 0 -18 2 -20 10
-8 9 13 10 13 10 0 0 -8 -8 -20 -18 -27 -17 -10 -19 -8 -17 15 4 54 4 54 28
48 16 -4 24 -1 24 8 0 8 -15 13 -44 13 -23 0 -43 -4 -43 -8 0 -5 -9 -13 -20
-19 -15 -8 -18 -7 -15 2 4 9 -6 14 -27 15 -24 2 -29 0 -18 -7 11 -7 11 -10 2
-10 -7 0 -10 -4 -7 -10 3 -5 1 -10 -4 -10 -6 0 -11 9 -11 20 0 11 -5 20 -11
20 -7 0 -9 -10 -7 -25 6 -31 -4 -33 -17 -2 -8 18 -18 22 -59 22 -40 1 -49 -3
-56 -21 -5 -11 -17 -29 -27 -39 -14 -15 -18 -34 -18 -99 0 -45 -4 -85 -10 -89
-6 -6 -6 -10 3 -14 6 -2 12 -9 12 -14 0 -6 -5 -7 -12 -3 -8 5 -9 0 -6 -14 4
-12 2 -22 -2 -22 -14 0 -17 23 -9 54 10 34 3 66 -24 119 -23 45 -32 47 -23 5
6 -29 5 -30 -7 -14 -13 17 -14 17 -20 2 -4 -10 -3 -15 4 -11 6 4 8 -3 4 -22
-5 -19 -4 -24 3 -15 7 11 11 7 16 -13 4 -15 2 -33 -4 -40 -12 -14 -3 -48 11
-39 5 3 6 -2 3 -11 -5 -11 0 -18 13 -21 20 -6 43 -43 43 -67 -1 -7 -7 3 -16
22 -8 19 -17 31 -20 28 -3 -3 13 -42 36 -86 l42 -81 42 0 c22 0 156 9 296 19
140 11 361 27 490 36 129 9 246 19 260 23 21 6 26 16 34 59 7 44 6 55 -9 70
-13 13 -20 14 -23 5 -2 -6 -9 -12 -16 -12 -7 0 -12 -8 -12 -17 1 -10 -3 -19
-9 -20 -10 -3 -11 0 -14 35 -1 15 -3 15 -11 2 -6 -9 -10 -10 -10 -3 0 6 4 14
10 18 5 3 7 12 4 19 -4 10 2 12 20 9 16 -3 26 -1 26 6 0 7 -4 9 -10 6 -5 -3
-10 -1 -10 5 0 6 10 8 25 4 31 -8 33 4 3 15 l-22 8 22 5 c14 4 20 2 15 -5 -4
-7 0 -8 11 -4 9 4 14 3 11 -2 -3 -5 -1 -12 5 -16 5 -3 10 -2 10 4 0 5 4 43 9
83 20 154 22 183 11 168 -7 -11 -10 -11 -10 -2 0 7 -5 10 -10 7 -6 -4 -7 -11
-4 -17 4 -6 1 -8 -7 -6 -8 3 -24 -4 -36 -15 -21 -18 -23 -19 -29 -3 -7 19 22
52 46 51 24 -2 33 7 19 16 -11 6 -11 9 1 13 8 2 23 7 33 10 13 4 17 15 16 38
-1 18 2 53 6 78 8 41 7 44 -9 31 -10 -8 -14 -21 -11 -32 5 -15 1 -19 -16 -19
-17 0 -20 3 -12 11 11 11 6 49 -6 49 -4 0 -14 -8 -22 -17z m-331 -187 c-16 -5
-29 -17 -29 -25 -1 -12 -3 -11 -6 2 -3 11 -11 16 -18 13 -8 -3 -12 0 -9 7 2 7
23 12 47 12 39 1 40 0 15 -9z m265 -35 c3 -11 -1 -22 -9 -25 -17 -6 -26 7 -18
28 8 22 21 20 27 -3z m-69 -17 c3 -8 2 -12 -4 -9 -6 3 -10 10 -10 16 0 14 7
11 14 -7z m-194 -13 c0 -5 -7 -12 -16 -15 -14 -5 -15 -4 -4 9 14 17 20 19 20
6z m-170 -11 c0 -12 -40 -34 -48 -26 -3 3 0 6 6 6 7 0 12 7 12 15 0 8 7 15 15
15 8 0 15 -4 15 -10z m174 -35 c-6 -16 -34 -21 -34 -7 0 13 11 22 26 22 8 0
11 -6 8 -15z m206 1 c-6 -8 -18 -12 -27 -9 -12 5 -12 7 -1 14 7 5 19 9 27 9
11 0 11 -3 1 -14z m-255 -26 c3 -5 2 -10 -4 -10 -5 0 -13 5 -16 10 -3 6 -2 10
4 10 5 0 13 -4 16 -10z m-300 -50 c-3 -5 -12 -10 -18 -10 -7 0 -6 4 3 10 19
12 23 12 15 0z m345 -95 c0 -8 0 -18 0 -22 0 -19 -33 -6 -36 15 -3 16 1 22 16
22 11 0 20 -7 20 -15z m-26 -90 c-4 -8 -8 -15 -10 -15 -2 0 -4 7 -4 15 0 8 4
15 10 15 5 0 7 -7 4 -15z m341 -35 c3 -5 2 -10 -4 -10 -5 0 -13 5 -16 10 -3 6
-2 10 4 10 5 0 13 -4 16 -10z m-205 -14 c0 -9 8 -12 24 -9 13 3 27 0 30 -6 8
-12 -17 -16 -69 -12 -49 5 -58 41 -9 41 14 0 24 -6 24 -14z m-850 -86 c0 -5
-5 -10 -11 -10 -5 0 -7 5 -4 10 3 6 8 10 11 10 2 0 4 -4 4 -10z"/>
<path d="M1267 771 c-15 -10 -30 -20 -33 -23 -9 -9 29 -78 43 -78 11 0 10 6
-3 29 -15 25 -15 32 -4 46 12 14 15 13 33 -14 10 -17 26 -31 34 -31 11 0 8 8
-11 31 -31 36 -32 46 -8 52 14 4 14 5 -3 5 -11 0 -32 -7 -48 -17z"/>
<path d="M1431 734 c0 -11 3 -14 6 -6 3 7 2 16 -1 19 -3 4 -6 -2 -5 -13z"/>
<path d="M896 696 c-9 -19 -16 -39 -16 -45 0 -14 17 -14 22 0 2 6 18 17 36 25
l33 13 -7 -34 c-4 -21 -2 -35 4 -35 5 0 12 12 15 28 3 15 9 36 13 46 6 15 4
18 -7 14 -8 -3 -23 0 -34 8 -29 21 -41 17 -59 -20z m52 2 c-3 -7 -12 -14 -21
-16 -12 -2 -15 1 -11 12 7 19 38 22 32 4z"/>
<path d="M1180 708 c1 -62 28 -85 70 -58 15 10 13 11 -25 14 -15 1 -21 9 -23
34 -4 36 -22 44 -22 10z"/>
<path d="M1385 720 c3 -5 1 -10 -5 -10 -6 0 -8 -5 -5 -10 4 -6 11 -8 16 -5 12
8 11 35 -2 35 -5 0 -7 -4 -4 -10z"/>
<path d="M1146 690 c4 -16 3 -37 -1 -47 -6 -17 -7 -17 -21 1 -8 11 -14 30 -14
44 0 13 -4 20 -10 17 -17 -10 -11 -54 10 -75 39 -39 77 13 54 74 -11 28 -24
17 -18 -14z"/>
<path d="M1063 690 c-10 -22 -12 -23 -18 -7 -16 40 -45 8 -45 -50 0 -35 18
-27 23 10 l4 32 13 -32 c24 -55 44 -36 38 33 -4 38 -4 38 -15 14z"/>
<path d="M835 659 c-11 -17 1 -21 15 -4 8 9 8 15 2 15 -6 0 -14 -5 -17 -11z"/>
<path d="M800 650 c0 -5 5 -10 11 -10 5 0 7 5 4 10 -3 6 -8 10 -11 10 -2 0 -4
-4 -4 -10z"/>
<path d="M910 626 c0 -2 7 -7 16 -10 8 -3 12 -2 9 4 -6 10 -25 14 -25 6z"/>
<path d="M511 594 c0 -11 3 -14 6 -6 3 7 2 16 -1 19 -3 4 -6 -2 -5 -13z"/>
</g>
</svg>
